<?xml version="1.0" standalone="no"?>
<!DOCTYPE svg PUBLIC "-//W3C//DTD SVG 20010904//EN"
 "http://www.w3.org/TR/2001/REC-SVG-20010904/DTD/svg10.dtd">
<svg version="1.0" xmlns="http://www.w3.org/2000/svg"
 width="400.000000pt" height="400.000000pt" viewBox="0 0 400.000000 400.000000"
 preserveAspectRatio="xMidYMid meet">
<metadata>
Created by potrace 1.14, written by Peter Selinger 2001-2017
</metadata>
<g transform="translate(0.000000,400.000000) scale(0.100000,-0.100000)"
fill="#000000" stroke="none">
<path d="M338 3960 c-22 -22 -36 -40 -31 -41 4 0 -2 -4 -15 -10 -13 -5 -20
-13 -17 -19 3 -5 2 -10 -4 -10 -6 0 -24 -13 -41 -30 -17 -16 -28 -30 -24 -30
4 0 -3 -9 -16 -20 -13 -11 -28 -20 -33 -20 -6 0 -8 -3 -4 -6 3 -3 -13 -24 -36
-47 -23 -23 -41 -46 -39 -50 1 -5 -2 -6 -8 -2 -5 3 -10 1 -10 -4 0 -6 -7 -11
-16 -11 -8 0 -13 -4 -9 -9 3 -5 -4 -12 -14 -16 -20 -6 -20 -22 -20 -1643 l1
-1637 78 -77 c43 -42 81 -74 84 -71 3 4 6 -2 6 -12 0 -10 3 -16 6 -13 7 8 51
-35 47 -44 -2 -5 0 -8 5 -8 6 0 40 -29 77 -65 l67 -64 1629 0 1630 0 17 21 c9
11 36 39 59 61 23 22 40 44 37 49 -3 4 3 5 12 1 11 -4 15 -3 10 5 -3 6 3 13
14 17 11 3 20 14 20 23 0 15 2 15 10 2 5 -8 10 -10 10 -4 0 5 31 42 70 81 38
39 66 74 62 78 -4 5 -1 5 6 1 7 -4 15 -1 18 8 3 9 10 13 15 11 5 -3 7 713 6
1630 -2 1442 -4 1637 -17 1645 -8 5 -10 10 -5 10 6 1 0 5 -13 11 -13 5 -21 12
-19 16 3 5 -1 14 -9 21 -8 7 -14 10 -14 6 0 -4 -42 36 -94 87 -51 52 -114 113
-140 137 -25 23 -46 47 -46 52 0 6 -7 10 -15 10 -8 0 -15 4 -15 10 0 6 -583 9
-1616 9 l-1616 0 -40 -39z"/>
</g>
</svg>
